<svg width="51" height="53" viewBox="0 0 51 53" fill="none" xmlns="http://www.w3.org/2000/svg">
<path d="M0 0H35C43.8366 0 51 7.16344 51 16V53H16C7.16344 53 0 45.8366 0 37V0Z" fill="#008ECC"/>
<path d="M14.2314 24.21C13.6901 24.21 13.1534 24.1493 12.6214 24.028C12.0988 23.916 11.6601 23.7573 11.3054 23.552V21.718C11.7161 21.9793 12.1734 22.1847 12.6774 22.334C13.1908 22.474 13.6761 22.544 14.1334 22.544C14.8614 22.544 15.4074 22.404 15.7714 22.124C16.1354 21.8347 16.3174 21.4193 16.3174 20.878C16.3174 20.3553 16.1354 19.954 15.7714 19.674C15.4168 19.394 14.9128 19.254 14.2594 19.254C13.9328 19.254 13.5874 19.2867 13.2234 19.352C12.8688 19.4173 12.5561 19.506 12.2854 19.618L11.4314 19.128L11.8234 14.214H17.8294V15.964H13.8254L13.6714 17.854C14.1848 17.742 14.6981 17.686 15.2114 17.686C16.2381 17.686 17.0361 17.966 17.6054 18.526C18.1841 19.0767 18.4734 19.8467 18.4734 20.836C18.4734 21.9093 18.1141 22.74 17.3954 23.328C16.6861 23.916 15.6314 24.21 14.2314 24.21ZM23.3475 24.21C22.5822 24.21 21.9008 24.0373 21.3035 23.692C20.7062 23.3373 20.2348 22.8333 19.8895 22.18C19.5535 21.5173 19.3855 20.7333 19.3855 19.828C19.3855 18.6053 19.5862 17.5553 19.9875 16.678C20.3888 15.8007 20.9535 15.138 21.6815 14.69C22.4095 14.2327 23.2635 14.004 24.2435 14.004C24.8595 14.004 25.4102 14.0787 25.8955 14.228V15.992C25.5035 15.796 25.0088 15.698 24.4115 15.698C23.6088 15.698 22.9648 15.9313 22.4795 16.398C21.9942 16.8553 21.7002 17.5273 21.5975 18.414C21.8682 18.134 22.2182 17.9193 22.6475 17.77C23.0768 17.6207 23.5388 17.546 24.0335 17.546C24.6588 17.546 25.2095 17.6767 25.6855 17.938C26.1708 18.19 26.5442 18.5633 26.8055 19.058C27.0762 19.5433 27.2115 20.1173 27.2115 20.78C27.2115 21.4333 27.0622 22.0213 26.7635 22.544C26.4648 23.0573 26.0215 23.4633 25.4335 23.762C24.8548 24.0607 24.1595 24.21 23.3475 24.21ZM23.3615 22.6C23.8655 22.6 24.2762 22.4413 24.5935 22.124C24.9202 21.8067 25.0835 21.396 25.0835 20.892C25.0835 20.388 24.9202 19.9727 24.5935 19.646C24.2762 19.3193 23.8655 19.156 23.3615 19.156C22.8855 19.156 22.4842 19.324 22.1575 19.66C21.8308 19.9867 21.6675 20.3973 21.6675 20.892C21.6675 21.3587 21.8262 21.76 22.1435 22.096C22.4702 22.432 22.8762 22.6 23.3615 22.6ZM30.7122 19.142C30.2455 19.142 29.8162 19.03 29.4242 18.806C29.0322 18.5727 28.7195 18.26 28.4862 17.868C28.2622 17.476 28.1502 17.0467 28.1502 16.58C28.1502 16.1133 28.2622 15.684 28.4862 15.292C28.7195 14.8907 29.0322 14.578 29.4242 14.354C29.8162 14.1207 30.2455 14.004 30.7122 14.004C31.1788 14.004 31.6082 14.1207 32.0002 14.354C32.4015 14.578 32.7142 14.8907 32.9382 15.292C33.1715 15.684 33.2882 16.1133 33.2882 16.58C33.2882 17.0467 33.1715 17.476 32.9382 17.868C32.7142 18.26 32.4015 18.5727 32.0002 18.806C31.6082 19.03 31.1788 19.142 30.7122 19.142ZM35.5842 14.214H37.6982L32.2802 24H30.1662L35.5842 14.214ZM30.7122 17.77C31.0482 17.77 31.3235 17.6627 31.5382 17.448C31.7622 17.224 31.8742 16.9487 31.8742 16.622C31.8742 16.286 31.7622 16.006 31.5382 15.782C31.3235 15.558 31.0482 15.446 30.7122 15.446C30.3855 15.446 30.1102 15.558 29.8862 15.782C29.6715 16.006 29.5642 16.286 29.5642 16.622C29.5642 16.9393 29.6762 17.21 29.9002 17.434C30.1242 17.658 30.3948 17.77 30.7122 17.77ZM37.1102 24.21C36.6435 24.21 36.2142 24.098 35.8222 23.874C35.4302 23.6407 35.1175 23.328 34.8842 22.936C34.6602 22.544 34.5482 22.1147 34.5482 21.648C34.5482 21.1813 34.6602 20.752 34.8842 20.36C35.1175 19.9587 35.4302 19.646 35.8222 19.422C36.2142 19.1887 36.6435 19.072 37.1102 19.072C37.5768 19.072 38.0062 19.1887 38.3982 19.422C38.7995 19.646 39.1122 19.9587 39.3362 20.36C39.5695 20.752 39.6862 21.1813 39.6862 21.648C39.6862 22.1147 39.5695 22.544 39.3362 22.936C39.1122 23.328 38.7995 23.6407 38.3982 23.874C38.0062 24.098 37.5768 24.21 37.1102 24.21ZM37.0962 22.838C37.4322 22.838 37.7075 22.7307 37.9222 22.516C38.1462 22.292 38.2582 22.0167 38.2582 21.69C38.2582 21.354 38.1462 21.074 37.9222 20.85C37.7075 20.626 37.4322 20.514 37.0962 20.514C36.7695 20.514 36.4942 20.626 36.2702 20.85C36.0555 21.074 35.9482 21.354 35.9482 21.69C35.9482 22.0073 36.0602 22.278 36.2842 22.502C36.5082 22.726 36.7788 22.838 37.0962 22.838ZM17.8334 40.21C16.8534 40.21 15.9621 39.9953 15.1594 39.566C14.3661 39.1367 13.7407 38.5393 13.2834 37.774C12.8261 36.9993 12.5974 36.1127 12.5974 35.114C12.5974 34.1153 12.8261 33.2287 13.2834 32.454C13.7407 31.6793 14.3661 31.0773 15.1594 30.648C15.9621 30.2187 16.8534 30.004 17.8334 30.004C18.8134 30.004 19.6954 30.2187 20.4794 30.648C21.2727 31.0773 21.8981 31.6793 22.3554 32.454C22.8127 33.2287 23.0414 34.1153 23.0414 35.114C23.0414 36.1127 22.8127 36.9993 22.3554 37.774C21.8981 38.5393 21.2727 39.1367 20.4794 39.566C19.6954 39.9953 18.8134 40.21 17.8334 40.21ZM17.8334 38.25C18.3934 38.25 18.9021 38.124 19.3594 37.872C19.8261 37.6107 20.1947 37.2467 20.4654 36.78C20.7361 36.304 20.8714 35.7487 20.8714 35.114C20.8714 34.4887 20.7361 33.9427 20.4654 33.476C20.2041 33 19.8401 32.636 19.3734 32.384C18.9161 32.1227 18.4027 31.992 17.8334 31.992C17.2547 31.992 16.7321 32.1227 16.2654 32.384C15.8081 32.636 15.4441 33 15.1734 33.476C14.9027 33.9427 14.7674 34.4887 14.7674 35.114C14.7674 35.7487 14.9027 36.304 15.1734 36.78C15.4441 37.2467 15.8127 37.6107 16.2794 37.872C16.7461 38.124 17.2641 38.25 17.8334 38.25ZM24.2114 30.214H31.0014V32.006H26.3394V34.288H29.7694V35.926H26.3394V40H24.2114V30.214ZM31.895 30.214H38.685V32.006H34.023V34.288H37.453V35.926H34.023V40H31.895V30.214Z" fill="white"/>
</svg>
