<svg width="18" height="11" viewBox="0 0 18 11" fill="none" xmlns="http://www.w3.org/2000/svg">
<path d="M6 10.25C6.39782 10.25 6.77936 10.092 7.06066 9.81066C7.34196 9.52936 7.5 9.14782 7.5 8.75C7.5 8.35218 7.34196 7.97064 7.06066 7.68934C6.77936 7.40804 6.39782 7.25 6 7.25C5.60218 7.25 5.22064 7.40804 4.93934 7.68934C4.65804 7.97064 4.5 8.35218 4.5 8.75C4.5 9.14782 4.65804 9.52936 4.93934 9.81066C5.22064 10.092 5.60218 10.25 6 10.25V10.25ZM13.5 10.25C13.8978 10.25 14.2794 10.092 14.5607 9.81066C14.842 9.52936 15 9.14782 15 8.75C15 8.35218 14.842 7.97064 14.5607 7.68934C14.2794 7.40804 13.8978 7.25 13.5 7.25C13.1022 7.25 12.7206 7.40804 12.4393 7.68934C12.158 7.97064 12 8.35218 12 8.75C12 9.14782 12.158 9.52936 12.4393 9.81066C12.7206 10.092 13.1022 10.25 13.5 10.25V10.25Z" stroke="#008ECC" stroke-miterlimit="1.5" stroke-linecap="round" stroke-linejoin="round"/>
<path d="M7.5375 8.75H11.25V0.95C11.25 0.830653 11.2026 0.716193 11.1182 0.631802C11.0338 0.547411 10.9193 0.5 10.8 0.5H0.75M4.2375 8.75H2.7C2.64091 8.75 2.58239 8.73836 2.52779 8.71575C2.4732 8.69313 2.42359 8.65998 2.3818 8.6182C2.34002 8.57641 2.30687 8.5268 2.28425 8.47221C2.26164 8.41761 2.25 8.35909 2.25 8.3V4.625" stroke="#008ECC" stroke-linecap="round"/>
<path d="M1.5 2.75H4.5" stroke="#008ECC" stroke-linecap="round" stroke-linejoin="round"/>
<path d="M11.25 2.75H15.4575C15.5445 2.75002 15.6296 2.77525 15.7025 2.82264C15.7755 2.87002 15.8331 2.93753 15.8685 3.017L17.211 6.038C17.2366 6.09536 17.2499 6.15744 17.25 6.22025V8.3C17.25 8.35909 17.2384 8.41761 17.2157 8.47221C17.1931 8.5268 17.16 8.57641 17.1182 8.6182C17.0764 8.65998 17.0268 8.69313 16.9722 8.71575C16.9176 8.73836 16.8591 8.75 16.8 8.75H15.375M11.25 8.75H12" stroke="#008ECC" stroke-linecap="round"/>
</svg>
